<svg id="Layer_1" data-name="Layer 1" xmlns="http://www.w3.org/2000/svg" viewBox="0 0 484.72 498.9"><defs><style>.cls-1{fill:#35f706;}</style></defs><path class="cls-1" d="M249.06,98C255,90,259.89,85.8,269.9,87.2c76.19,10.69,136.59,75.69,139.17,150.72,2.87,83-50.38,151.93-129.39,167.58C186.35,424,97.44,358.77,87.6,264.2c-5.11-49.07,11.27-91.75,42.12-129,10.88-13.13,24.74-23.79,34.9-33.36-21.37,8.25-38.3,27.45-56.46,46.4,1.5-5.49,2.75-11.06,4.55-16.45,11.37-34.15,35-57.82,65.38-75.47C207.6,39.22,240,29.58,272.44,19.93c5.12-1.52,10.25-3,15.73-4.56.2,1.41.61,2.27.36,2.82-23.09,49.62-52.47,94.62-96.7,128.15-10.46,7.93-22,15.27-34.22,19.89C117.84,181.3,92,217.49,100.89,270.46c12.39,73.86,74.86,126.43,149.78,125.73,85.23-.8,153.31-76,145.62-160.76-6.8-75-62.65-130-138.78-136.7Z"/><path class="cls-1" d="M88.82,203.38c-19-21-32.22-43.4-36.52-71.94-.8,22.14,8.18,39.88,16.38,58.78-2.25-1.46-4.61-2.77-6.71-4.42-19.54-15.31-31.06-35.55-36.61-59.51C17.33,91.65,22,57.1,25.23,22c1.49.54,2.37.6,2.81,1.07C58,55,82.24,90.37,93.24,133.47,98.5,154,98.61,174.62,92.12,195,91.34,197.47,90.23,199.83,88.82,203.38Z"/><path class="cls-1" d="M234.55,323.12c-49.83,5.56-90.36-32.1-88.64-81.65.16-4.41.91-7.18,6.14-7.22C201.7,233.91,239.06,267.2,234.55,323.12Z"/><path class="cls-1" d="M345.73,235.22c8.28,49.79-35.29,93.62-86.75,88C244.3,279.65,296.15,226.8,345.73,235.22Z"/><path class="cls-1" d="M245.12,274.17c-41.54-36-41.12-97.84.38-124.24C282,179.38,291.5,234.05,245.12,274.17Z"/><path class="cls-1" d="M225.15,464.67l12.91,15.53c-5.32,2.21-8,1.64-12.38-3.75-3.19-3.94-6.11-8.11-9.14-12.18l-3.28,1.38L216.05,481H204.72c.73-6.19,2.19-12.55,2-18.85s3.61-13.72-5.14-18l.85-2.05c8.35.62,16.83.62,25,2.21,2.7.52,6.69,5.39,6.4,7.83-.49,4.15-3.9,7.95-6.09,11.9Zm-10.88-20.58v19.24c4.78-2.25,8.95-3.3,11.64-5.88,1.35-1.29,1.13-6.51-.35-8C223.1,447.05,219.06,446.22,214.27,444.09Z"/><path class="cls-1" d="M413.46,466.16l12.15,14.56c-6.63,2.7-10.9-1.34-14.78-6.74-2.42-3.38-5.09-6.57-7.65-9.84L400,465.8c1.1,4.88,2.2,9.76,3.37,15H389.89c6.19-7.93,6-30.63-2.29-38.81,10.46.81,18.92.82,27,2.44,2.73.54,6.8,5.49,6.45,7.87C420.5,456.47,417,460.22,413.46,466.16ZM401,463.58c5.1-2.47,9.46-3.5,11.95-6.23,1.38-1.51.75-7.1-1-8.65-2.44-2.19-6.7-2.36-11-3.62Z"/><path class="cls-1" d="M55.88,483.53l-23-30.45c-.22,9.7-5.21,19.47,3.14,27.94H22.94c6.74-7,6.62-30.75-.63-38.64,18.36-.19,20.19,17.68,31.86,25.92-1.17-8.7,3.24-17.3-5-25.08H62C53.32,454.91,60.54,468.61,55.88,483.53Z"/><path class="cls-1" d="M155.53,443h14.59c-4.8,5.35-7.12,27.45-2.86,31.88,2.15,2.23,6.78,3.44,9.94,2.93,2.69-.43,6.64-3.74,7-6.19a108.72,108.72,0,0,0,.23-21.8c-.14-2-2.87-3.84-4.86-6.32h12.58c-1.2,4-2.87,8-3.46,12.07s-.06,8.62-.16,12.94c-.21,9.12-5.59,14.25-14.86,14.28s-14.63-5.16-14.81-14.34c-.09-4.59.38-9.23-.14-13.76C158.26,451,156.75,447.36,155.53,443Z"/><path class="cls-1" d="M275.52,469.14c2.84,10.71,2,12.18-5.61,12.27s-15.07,0-22.94,0c6.38-8.57,6.24-31.7-1.14-38.72,9.64,0,18.12-.57,26.42.45,1.78.21,2.85,6.15,3,10.39-5-4.51-8.26-11.2-16.79-6.68v12.74l10.43,1.55c0,.6.08,1.2.13,1.8l-11.71,1.29c1,4.73.54,11.63,3.1,13C266.37,480.56,272.79,478.65,275.52,469.14Z"/><path class="cls-1" d="M462.73,471.19c2,6.39,1.87,10.85-6.47,10.33-7.43-.46-14.91-.09-23-.09,6.83-7.77,6.82-31.23-.22-38.76,9.05,0,17.41-.93,25.45.29,6.74,1,3.42,6.6,2.91,13.15-4.46-7.16-7.51-13.53-16.09-9.49v13.09l10.4,1.46,0,1.9L444,464.15c1.08,4.72.69,11.64,3.44,13.27C453.27,480.89,459.1,477.79,462.73,471.19Z"/><path class="cls-1" d="M79.92,481.2H69.4c3-6.09,6.9-12,8.92-18.57,1.89-6.11,10.13-11.69,2.05-19.5,6.39-1.64,10,.69,12.12,5.74,2.82,6.69,5.33,13.52,8.31,20.14,1.79,4,4.22,7.66,6.58,11.87H95.06c-.7-3.85-1-10.21-2-10.34-4.7-.61-9.64.57-14.5,1.1C79,474.52,79.37,477.39,79.92,481.2Zm6.87-29.49c-2.27,5.5-4,9.68-5.92,14.36H92.43C90.59,461.37,89,457.21,86.79,451.71Z"/><path class="cls-1" d="M357.68,442.35c3.56-.87,7.11,1.62,9.25,6.71,2.6,6.2,5,12.49,7.75,18.62,2,4.45,4.43,8.71,6.81,13.33a10.45,10.45,0,0,1-2.3.46c-4,.06-7.93,0-10.05,0-.47-4.4-.44-10.55-1.26-10.67-4.78-.68-9.75.06-14.66.33.33,3.06.66,6.13,1,9.78H343C350.46,469.42,357.67,457.86,357.68,442.35Zm3.32,9.52-5.69,14h11.3c-1-2.59-1.65-4.6-2.44-6.57S362.5,455.37,361,451.87Z"/><path class="cls-1" d="M330.38,456.87c-1.91-5-2.29-10.09-4.67-11.32-5.34-2.75-10.79.35-12.18,5.72-1.54,6-2.36,13-.72,18.78,2.94,10.35,11.54,11.25,24.42,4.79-2.06,2.09-3.79,4.75-6.25,6.15-7.31,4.15-18.07,1.52-23.4-5.25-6.05-7.68-5.76-20.58.62-27.82,5.53-6.27,18.09-8.69,24.44-3.88,2.19,1.66,3.74,5.9,3.35,8.65C335.71,454.61,331.65,456,330.38,456.87Z"/><path class="cls-1" d="M132.85,446.76c2.42,11.16-3.78,23.23,4.85,34.25H122.28c8.93-10.68,1.72-23,4.89-34.11-5.07-.74-5.07-.74-13.14,7.51V442.64c9.54,0,19.31-1,28.75.33,6.81,1,4.27,6.64,2.59,11.79C141.19,451.45,141.83,443,132.85,446.76Z"/></svg>